<svg width="495" height="110" viewBox="0 0 495 110" fill="none" xmlns="http://www.w3.org/2000/svg">
<path d="M36.5934 38.01C36.1268 38.3367 34.4234 38.8733 31.4834 39.62C29.1034 40.32 27.8901 40.6933 27.8434 40.74V33.53C29.7101 32.8767 31.7401 31.99 33.9334 30.87C36.1734 29.7033 37.8068 28.5133 38.8334 27.3H46.3234V84H36.5934V38.01ZM89.287 84.28C83.7337 84.28 79.767 82.88 77.387 80.08C75.0537 77.28 73.887 73.2433 73.887 67.97V65.03H83.897V68.04C83.897 70.0467 83.9904 71.6333 84.177 72.8C84.3637 73.92 84.8304 74.8533 85.577 75.6C86.3704 76.3467 87.607 76.72 89.287 76.72C90.967 76.72 92.2037 76.3467 92.997 75.6C93.837 74.8067 94.3737 73.78 94.607 72.52C94.8404 71.2133 94.957 69.51 94.957 67.41V57.89H85.297V52.15H94.957V42.84C94.957 39.62 94.537 37.31 93.697 35.91C92.9037 34.4633 91.4337 33.74 89.287 33.74C87.7004 33.74 86.5104 34.1367 85.717 34.93C84.9237 35.6767 84.4104 36.6567 84.177 37.87C83.9904 39.0833 83.897 40.7167 83.897 42.77V45.99H73.887V43.33C73.887 37.87 75.0304 33.6467 77.317 30.66C79.6504 27.6733 83.6404 26.18 89.287 26.18C95.2137 26.18 99.367 27.8133 101.747 31.08C104.174 34.3467 105.387 39.0133 105.387 45.08V65.24C105.387 71.4933 104.174 76.23 101.747 79.45C99.367 82.67 95.2137 84.28 89.287 84.28ZM118.747 34.93H109.717V27.3H137.927V34.93H129.107V84H118.747V34.93ZM151.556 27.3H162.616L173.956 84H164.366L162.126 70.91H152.256L149.946 84H140.216L151.556 27.3ZM161.006 64.33L157.156 40.53L153.306 64.33H161.006ZM188.269 55.3L176.509 27.3H186.239L196.529 54.25H197.019V27.3H205.349V54.25H205.909L216.129 27.3H225.929L214.169 55.3L226.699 84H217.109L205.979 56.07H205.349V84H197.019V56.07H196.459L185.259 84H175.739L188.269 55.3Z" fill="white"/>
<path d="M284.976 25.16C286.208 25.16 287.312 25.432 288.288 25.976C289.264 26.52 290.024 27.28 290.568 28.256C291.128 29.232 291.408 30.36 291.408 31.64C291.408 32.92 291.128 34.056 290.568 35.048C290.024 36.024 289.264 36.784 288.288 37.328C287.312 37.872 286.208 38.144 284.976 38.144C284.064 38.144 283.224 37.968 282.456 37.616C281.704 37.264 281.064 36.752 280.536 36.08V42.656H278.232V25.28H280.44V27.296C280.952 26.592 281.6 26.064 282.384 25.712C283.168 25.344 284.032 25.16 284.976 25.16ZM284.784 36.128C285.6 36.128 286.328 35.944 286.968 35.576C287.624 35.192 288.136 34.664 288.504 33.992C288.888 33.304 289.08 32.52 289.08 31.64C289.08 30.76 288.888 29.984 288.504 29.312C288.136 28.624 287.624 28.096 286.968 27.728C286.328 27.36 285.6 27.176 284.784 27.176C283.984 27.176 283.256 27.368 282.6 27.752C281.96 28.12 281.448 28.64 281.064 29.312C280.696 29.984 280.512 30.76 280.512 31.64C280.512 32.52 280.696 33.304 281.064 33.992C281.432 34.664 281.944 35.192 282.6 35.576C283.256 35.944 283.984 36.128 284.784 36.128ZM306.251 31.712C306.251 31.888 306.235 32.12 306.203 32.408H295.883C296.027 33.528 296.515 34.432 297.347 35.12C298.195 35.792 299.243 36.128 300.491 36.128C302.011 36.128 303.235 35.616 304.163 34.592L305.435 36.08C304.859 36.752 304.139 37.264 303.275 37.616C302.427 37.968 301.475 38.144 300.419 38.144C299.075 38.144 297.883 37.872 296.843 37.328C295.803 36.768 294.995 35.992 294.419 35C293.859 34.008 293.579 32.888 293.579 31.64C293.579 30.408 293.851 29.296 294.395 28.304C294.955 27.312 295.715 26.544 296.675 26C297.651 25.44 298.747 25.16 299.963 25.16C301.179 25.16 302.259 25.44 303.203 26C304.163 26.544 304.907 27.312 305.435 28.304C305.979 29.296 306.251 30.432 306.251 31.712ZM299.963 27.104C298.859 27.104 297.931 27.44 297.179 28.112C296.443 28.784 296.011 29.664 295.883 30.752H304.043C303.915 29.68 303.475 28.808 302.723 28.136C301.987 27.448 301.067 27.104 299.963 27.104ZM315.37 38.144C314.074 38.144 312.914 37.864 311.89 37.304C310.882 36.744 310.09 35.976 309.514 35C308.938 34.008 308.65 32.888 308.65 31.64C308.65 30.392 308.938 29.28 309.514 28.304C310.09 27.312 310.882 26.544 311.89 26C312.914 25.44 314.074 25.16 315.37 25.16C316.522 25.16 317.546 25.392 318.442 25.856C319.354 26.32 320.058 26.992 320.554 27.872L318.802 29C318.402 28.392 317.906 27.936 317.314 27.632C316.722 27.328 316.066 27.176 315.346 27.176C314.514 27.176 313.762 27.36 313.09 27.728C312.434 28.096 311.914 28.624 311.53 29.312C311.162 29.984 310.978 30.76 310.978 31.64C310.978 32.536 311.162 33.328 311.53 34.016C311.914 34.688 312.434 35.208 313.09 35.576C313.762 35.944 314.514 36.128 315.346 36.128C316.066 36.128 316.722 35.976 317.314 35.672C317.906 35.368 318.402 34.912 318.802 34.304L320.554 35.408C320.058 36.288 319.354 36.968 318.442 37.448C317.546 37.912 316.522 38.144 315.37 38.144ZM332.853 27.296H328.197V38H325.893V27.296H321.237V25.28H332.853V27.296ZM340.094 38.144C338.83 38.144 337.694 37.864 336.686 37.304C335.678 36.744 334.886 35.976 334.31 35C333.75 34.008 333.47 32.888 333.47 31.64C333.47 30.392 333.75 29.28 334.31 28.304C334.886 27.312 335.678 26.544 336.686 26C337.694 25.44 338.83 25.16 340.094 25.16C341.358 25.16 342.486 25.44 343.478 26C344.486 26.544 345.27 27.312 345.83 28.304C346.406 29.28 346.694 30.392 346.694 31.64C346.694 32.888 346.406 34.008 345.83 35C345.27 35.976 344.486 36.744 343.478 37.304C342.486 37.864 341.358 38.144 340.094 38.144ZM340.094 36.128C340.91 36.128 341.638 35.944 342.278 35.576C342.934 35.192 343.446 34.664 343.814 33.992C344.182 33.304 344.366 32.52 344.366 31.64C344.366 30.76 344.182 29.984 343.814 29.312C343.446 28.624 342.934 28.096 342.278 27.728C341.638 27.36 340.91 27.176 340.094 27.176C339.278 27.176 338.542 27.36 337.886 27.728C337.246 28.096 336.734 28.624 336.35 29.312C335.982 29.984 335.798 30.76 335.798 31.64C335.798 32.52 335.982 33.304 336.35 33.992C336.734 34.664 337.246 35.192 337.886 35.576C338.542 35.944 339.278 36.128 340.094 36.128ZM356.765 25.16C357.997 25.16 359.101 25.432 360.077 25.976C361.053 26.52 361.813 27.28 362.357 28.256C362.917 29.232 363.197 30.36 363.197 31.64C363.197 32.92 362.917 34.056 362.357 35.048C361.813 36.024 361.053 36.784 360.077 37.328C359.101 37.872 357.997 38.144 356.765 38.144C355.853 38.144 355.013 37.968 354.245 37.616C353.493 37.264 352.853 36.752 352.325 36.08V42.656H350.021V25.28H352.229V27.296C352.741 26.592 353.389 26.064 354.173 25.712C354.957 25.344 355.821 25.16 356.765 25.16ZM356.573 36.128C357.389 36.128 358.117 35.944 358.757 35.576C359.413 35.192 359.925 34.664 360.293 33.992C360.677 33.304 360.869 32.52 360.869 31.64C360.869 30.76 360.677 29.984 360.293 29.312C359.925 28.624 359.413 28.096 358.757 27.728C358.117 27.36 357.389 27.176 356.573 27.176C355.773 27.176 355.045 27.368 354.389 27.752C353.749 28.12 353.237 28.64 352.853 29.312C352.485 29.984 352.301 30.76 352.301 31.64C352.301 32.52 352.485 33.304 352.853 33.992C353.221 34.664 353.733 35.192 354.389 35.576C355.045 35.944 355.773 36.128 356.573 36.128ZM370.963 25.16C372.723 25.16 374.067 25.592 374.995 26.456C375.939 27.32 376.411 28.608 376.411 30.32V38H374.227V36.32C373.843 36.912 373.291 37.368 372.571 37.688C371.867 37.992 371.027 38.144 370.051 38.144C368.627 38.144 367.483 37.8 366.619 37.112C365.771 36.424 365.347 35.52 365.347 34.4C365.347 33.28 365.755 32.384 366.571 31.712C367.387 31.024 368.683 30.68 370.459 30.68H374.107V30.224C374.107 29.232 373.819 28.472 373.243 27.944C372.667 27.416 371.819 27.152 370.699 27.152C369.947 27.152 369.211 27.28 368.491 27.536C367.771 27.776 367.163 28.104 366.667 28.52L365.707 26.792C366.363 26.264 367.147 25.864 368.059 25.592C368.971 25.304 369.939 25.16 370.963 25.16ZM370.435 36.368C371.315 36.368 372.075 36.176 372.715 35.792C373.355 35.392 373.819 34.832 374.107 34.112V32.336H370.555C368.603 32.336 367.627 32.992 367.627 34.304C367.627 34.944 367.875 35.448 368.371 35.816C368.867 36.184 369.555 36.368 370.435 36.368ZM380.56 25.28H382.864V30.68H390.112V25.28H392.416V38H390.112V32.672H382.864V38H380.56V25.28Z" fill="white"/>
<path d="M283.176 61.624H280.536V67H278.232V54.28H280.536V59.656H283.224L287.352 54.28H289.824L285 60.4L290.16 67H287.448L283.176 61.624ZM297.602 67.144C296.338 67.144 295.202 66.864 294.194 66.304C293.186 65.744 292.394 64.976 291.818 64C291.258 63.008 290.978 61.888 290.978 60.64C290.978 59.392 291.258 58.28 291.818 57.304C292.394 56.312 293.186 55.544 294.194 55C295.202 54.44 296.338 54.16 297.602 54.16C298.866 54.16 299.994 54.44 300.986 55C301.994 55.544 302.778 56.312 303.338 57.304C303.914 58.28 304.202 59.392 304.202 60.64C304.202 61.888 303.914 63.008 303.338 64C302.778 64.976 301.994 65.744 300.986 66.304C299.994 66.864 298.866 67.144 297.602 67.144ZM297.602 65.128C298.418 65.128 299.146 64.944 299.786 64.576C300.442 64.192 300.954 63.664 301.322 62.992C301.69 62.304 301.874 61.52 301.874 60.64C301.874 59.76 301.69 58.984 301.322 58.312C300.954 57.624 300.442 57.096 299.786 56.728C299.146 56.36 298.418 56.176 297.602 56.176C296.786 56.176 296.05 56.36 295.394 56.728C294.754 57.096 294.242 57.624 293.858 58.312C293.49 58.984 293.306 59.76 293.306 60.64C293.306 61.52 293.49 62.304 293.858 62.992C294.242 63.664 294.754 64.192 295.394 64.576C296.05 64.944 296.786 65.128 297.602 65.128ZM312.473 61.624H309.833V67H307.529V54.28H309.833V59.656H312.521L316.649 54.28H319.121L314.297 60.4L319.457 67H316.745L312.473 61.624ZM331.142 56.296H326.486V67H324.182V56.296H319.526V54.28H331.142V56.296ZM344.431 60.712C344.431 60.888 344.415 61.12 344.383 61.408H334.063C334.207 62.528 334.695 63.432 335.527 64.12C336.375 64.792 337.423 65.128 338.671 65.128C340.191 65.128 341.415 64.616 342.343 63.592L343.615 65.08C343.039 65.752 342.319 66.264 341.455 66.616C340.607 66.968 339.655 67.144 338.599 67.144C337.255 67.144 336.063 66.872 335.023 66.328C333.983 65.768 333.175 64.992 332.599 64C332.039 63.008 331.759 61.888 331.759 60.64C331.759 59.408 332.031 58.296 332.575 57.304C333.135 56.312 333.895 55.544 334.855 55C335.831 54.44 336.927 54.16 338.143 54.16C339.359 54.16 340.439 54.44 341.383 55C342.343 55.544 343.087 56.312 343.615 57.304C344.159 58.296 344.431 59.432 344.431 60.712ZM338.143 56.104C337.039 56.104 336.111 56.44 335.359 57.112C334.623 57.784 334.191 58.664 334.063 59.752H342.223C342.095 58.68 341.655 57.808 340.903 57.136C340.167 56.448 339.247 56.104 338.143 56.104ZM348.005 54.28H350.309V63.544L358.109 54.28H360.197V67H357.893V57.736L350.117 67H348.005V54.28ZM353.957 52.624C352.773 52.624 351.853 52.344 351.197 51.784C350.541 51.208 350.205 50.384 350.189 49.312H351.749C351.765 49.904 351.965 50.384 352.349 50.752C352.749 51.104 353.277 51.28 353.933 51.28C354.589 51.28 355.117 51.104 355.517 50.752C355.917 50.384 356.125 49.904 356.141 49.312H357.749C357.733 50.384 357.389 51.208 356.717 51.784C356.045 52.344 355.125 52.624 353.957 52.624ZM375.59 54.28V67H373.286V56.296H367.814L367.67 59.128C367.59 60.84 367.438 62.272 367.214 63.424C366.99 64.56 366.622 65.472 366.11 66.16C365.598 66.848 364.886 67.192 363.974 67.192C363.558 67.192 363.086 67.12 362.558 66.976L362.702 65.032C362.91 65.08 363.102 65.104 363.278 65.104C363.918 65.104 364.398 64.824 364.718 64.264C365.038 63.704 365.246 63.04 365.342 62.272C365.438 61.504 365.526 60.408 365.605 58.984L365.822 54.28H375.59ZM385.925 58.6C387.541 58.616 388.773 58.984 389.621 59.704C390.469 60.424 390.893 61.44 390.893 62.752C390.893 64.128 390.429 65.192 389.501 65.944C388.589 66.68 387.277 67.04 385.565 67.024L380.045 67V54.28H382.349V58.576L385.925 58.6ZM385.373 65.272C386.413 65.288 387.197 65.08 387.725 64.648C388.269 64.216 388.541 63.576 388.541 62.728C388.541 61.896 388.277 61.288 387.749 60.904C387.237 60.52 386.445 60.32 385.373 60.304L382.349 60.256V65.248L385.373 65.272ZM392.985 59.416H399.441V61.408H392.985V59.416ZM409.681 54.712C410.865 54.712 411.921 54.976 412.849 55.504C413.777 56.032 414.497 56.768 415.009 57.712C415.537 58.64 415.801 59.704 415.801 60.904C415.801 62.136 415.521 63.232 414.961 64.192C414.417 65.136 413.641 65.872 412.633 66.4C411.641 66.928 410.505 67.192 409.225 67.192C407.065 67.192 405.393 66.456 404.209 64.984C403.041 63.496 402.457 61.408 402.457 58.72C402.457 56.112 402.993 54.072 404.065 52.6C405.137 51.112 406.777 50.128 408.985 49.648L414.793 48.352L415.129 50.464L409.777 51.616C408.113 51.984 406.873 52.608 406.057 53.488C405.241 54.368 404.777 55.632 404.665 57.28C405.209 56.464 405.913 55.832 406.777 55.384C407.641 54.936 408.609 54.712 409.681 54.712ZM409.273 65.272C410.089 65.272 410.809 65.088 411.433 64.72C412.073 64.352 412.569 63.848 412.921 63.208C413.273 62.552 413.449 61.808 413.449 60.976C413.449 59.712 413.065 58.696 412.297 57.928C411.529 57.16 410.521 56.776 409.273 56.776C408.025 56.776 407.009 57.16 406.225 57.928C405.457 58.696 405.073 59.712 405.073 60.976C405.073 61.808 405.249 62.552 405.601 63.208C405.969 63.848 406.473 64.352 407.113 64.72C407.753 65.088 408.473 65.272 409.273 65.272ZM423.51 54.16C425.27 54.16 426.614 54.592 427.542 55.456C428.486 56.32 428.958 57.608 428.958 59.32V67H426.774V65.32C426.39 65.912 425.838 66.368 425.118 66.688C424.414 66.992 423.574 67.144 422.598 67.144C421.174 67.144 420.03 66.8 419.166 66.112C418.318 65.424 417.894 64.52 417.894 63.4C417.894 62.28 418.302 61.384 419.118 60.712C419.934 60.024 421.23 59.68 423.006 59.68H426.654V59.224C426.654 58.232 426.366 57.472 425.79 56.944C425.214 56.416 424.366 56.152 423.246 56.152C422.494 56.152 421.758 56.28 421.038 56.536C420.318 56.776 419.71 57.104 419.214 57.52L418.254 55.792C418.91 55.264 419.694 54.864 420.606 54.592C421.518 54.304 422.486 54.16 423.51 54.16ZM422.982 65.368C423.862 65.368 424.622 65.176 425.262 64.792C425.902 64.392 426.366 63.832 426.654 63.112V61.336H423.102C421.15 61.336 420.174 61.992 420.174 63.304C420.174 63.944 420.422 64.448 420.918 64.816C421.414 65.184 422.102 65.368 422.982 65.368ZM439.851 54.16C441.083 54.16 442.187 54.432 443.163 54.976C444.139 55.52 444.899 56.28 445.443 57.256C446.003 58.232 446.283 59.36 446.283 60.64C446.283 61.92 446.003 63.056 445.443 64.048C444.899 65.024 444.139 65.784 443.163 66.328C442.187 66.872 441.083 67.144 439.851 67.144C438.939 67.144 438.099 66.968 437.331 66.616C436.579 66.264 435.939 65.752 435.411 65.08V71.656H433.107V54.28H435.315V56.296C435.827 55.592 436.475 55.064 437.259 54.712C438.043 54.344 438.907 54.16 439.851 54.16ZM439.659 65.128C440.475 65.128 441.203 64.944 441.843 64.576C442.499 64.192 443.011 63.664 443.379 62.992C443.763 62.304 443.955 61.52 443.955 60.64C443.955 59.76 443.763 58.984 443.379 58.312C443.011 57.624 442.499 57.096 441.843 56.728C441.203 56.36 440.475 56.176 439.659 56.176C438.859 56.176 438.131 56.368 437.475 56.752C436.835 57.12 436.323 57.64 435.939 58.312C435.571 58.984 435.387 59.76 435.387 60.64C435.387 61.52 435.571 62.304 435.939 62.992C436.307 63.664 436.819 64.192 437.475 64.576C438.131 64.944 438.859 65.128 439.659 65.128Z" fill="white"/>
<path d="M284.712 83.712C285.896 83.712 286.952 83.976 287.88 84.504C288.808 85.032 289.528 85.768 290.04 86.712C290.568 87.64 290.832 88.704 290.832 89.904C290.832 91.136 290.552 92.232 289.992 93.192C289.448 94.136 288.672 94.872 287.664 95.4C286.672 95.928 285.536 96.192 284.256 96.192C282.096 96.192 280.424 95.456 279.24 93.984C278.072 92.496 277.488 90.408 277.488 87.72C277.488 85.112 278.024 83.072 279.096 81.6C280.168 80.112 281.808 79.128 284.016 78.648L289.824 77.352L290.16 79.464L284.808 80.616C283.144 80.984 281.904 81.608 281.088 82.488C280.272 83.368 279.808 84.632 279.696 86.28C280.24 85.464 280.944 84.832 281.808 84.384C282.672 83.936 283.64 83.712 284.712 83.712ZM284.304 94.272C285.12 94.272 285.84 94.088 286.464 93.72C287.104 93.352 287.6 92.848 287.952 92.208C288.304 91.552 288.48 90.808 288.48 89.976C288.48 88.712 288.096 87.696 287.328 86.928C286.56 86.16 285.552 85.776 284.304 85.776C283.056 85.776 282.04 86.16 281.256 86.928C280.488 87.696 280.104 88.712 280.104 89.976C280.104 90.808 280.28 91.552 280.632 92.208C281 92.848 281.504 93.352 282.144 93.72C282.784 94.088 283.504 94.272 284.304 94.272ZM299.571 96.144C298.307 96.144 297.171 95.864 296.163 95.304C295.155 94.744 294.363 93.976 293.787 93C293.227 92.008 292.947 90.888 292.947 89.64C292.947 88.392 293.227 87.28 293.787 86.304C294.363 85.312 295.155 84.544 296.163 84C297.171 83.44 298.307 83.16 299.571 83.16C300.835 83.16 301.963 83.44 302.955 84C303.963 84.544 304.747 85.312 305.307 86.304C305.883 87.28 306.171 88.392 306.171 89.64C306.171 90.888 305.883 92.008 305.307 93C304.747 93.976 303.963 94.744 302.955 95.304C301.963 95.864 300.835 96.144 299.571 96.144ZM299.571 94.128C300.387 94.128 301.115 93.944 301.755 93.576C302.411 93.192 302.923 92.664 303.291 91.992C303.659 91.304 303.843 90.52 303.843 89.64C303.843 88.76 303.659 87.984 303.291 87.312C302.923 86.624 302.411 86.096 301.755 85.728C301.115 85.36 300.387 85.176 299.571 85.176C298.755 85.176 298.019 85.36 297.363 85.728C296.723 86.096 296.211 86.624 295.827 87.312C295.459 87.984 295.275 88.76 295.275 89.64C295.275 90.52 295.459 91.304 295.827 91.992C296.211 92.664 296.723 93.192 297.363 93.576C298.019 93.944 298.755 94.128 299.571 94.128ZM320.324 83.28V96H318.02V85.296H312.548L312.404 88.128C312.324 89.84 312.172 91.272 311.948 92.424C311.724 93.56 311.356 94.472 310.844 95.16C310.332 95.848 309.62 96.192 308.708 96.192C308.292 96.192 307.82 96.12 307.292 95.976L307.436 94.032C307.644 94.08 307.836 94.104 308.012 94.104C308.652 94.104 309.132 93.824 309.452 93.264C309.772 92.704 309.98 92.04 310.076 91.272C310.172 90.504 310.26 89.408 310.34 87.984L310.556 83.28H320.324ZM330.659 87.6C332.275 87.616 333.507 87.984 334.355 88.704C335.203 89.424 335.627 90.44 335.627 91.752C335.627 93.128 335.163 94.192 334.235 94.944C333.323 95.68 332.011 96.04 330.299 96.024L324.779 96V83.28H327.083V87.576L330.659 87.6ZM330.107 94.272C331.147 94.288 331.931 94.08 332.459 93.648C333.003 93.216 333.275 92.576 333.275 91.728C333.275 90.896 333.011 90.288 332.483 89.904C331.971 89.52 331.179 89.32 330.107 89.304L327.083 89.256V94.248L330.107 94.272ZM356.704 83.28V96H338.584V83.28H340.888V93.984H346.504V83.28H348.808V93.984H354.4V83.28H356.704ZM366.625 96.144C365.361 96.144 364.225 95.864 363.217 95.304C362.209 94.744 361.417 93.976 360.841 93C360.281 92.008 360.001 90.888 360.001 89.64C360.001 88.392 360.281 87.28 360.841 86.304C361.417 85.312 362.209 84.544 363.217 84C364.225 83.44 365.361 83.16 366.625 83.16C367.889 83.16 369.017 83.44 370.009 84C371.017 84.544 371.801 85.312 372.361 86.304C372.937 87.28 373.225 88.392 373.225 89.64C373.225 90.888 372.937 92.008 372.361 93C371.801 93.976 371.017 94.744 370.009 95.304C369.017 95.864 367.889 96.144 366.625 96.144ZM366.625 94.128C367.441 94.128 368.169 93.944 368.809 93.576C369.465 93.192 369.977 92.664 370.345 91.992C370.713 91.304 370.897 90.52 370.897 89.64C370.897 88.76 370.713 87.984 370.345 87.312C369.977 86.624 369.465 86.096 368.809 85.728C368.169 85.36 367.441 85.176 366.625 85.176C365.809 85.176 365.073 85.36 364.417 85.728C363.777 86.096 363.265 86.624 362.881 87.312C362.513 87.984 362.329 88.76 362.329 89.64C362.329 90.52 362.513 91.304 362.881 91.992C363.265 92.664 363.777 93.192 364.417 93.576C365.073 93.944 365.809 94.128 366.625 94.128ZM376.552 83.28H378.856V92.544L386.656 83.28H388.744V96H386.44V86.736L378.664 96H376.552V83.28ZM382.504 81.624C381.32 81.624 380.4 81.344 379.744 80.784C379.088 80.208 378.752 79.384 378.736 78.312H380.296C380.312 78.904 380.512 79.384 380.896 79.752C381.296 80.104 381.824 80.28 382.48 80.28C383.136 80.28 383.664 80.104 384.064 79.752C384.464 79.384 384.672 78.904 384.688 78.312H386.296C386.28 79.384 385.936 80.208 385.264 80.784C384.592 81.344 383.672 81.624 382.504 81.624ZM406.55 89.376C407.398 89.6 408.054 89.96 408.518 90.456C408.982 90.952 409.214 91.568 409.214 92.304C409.214 93.056 408.958 93.728 408.446 94.32C407.934 94.896 407.222 95.352 406.31 95.688C405.414 96.008 404.406 96.168 403.286 96.168C402.342 96.168 401.414 96.048 400.502 95.808C399.606 95.552 398.806 95.192 398.102 94.728L398.798 92.976C399.406 93.36 400.102 93.664 400.886 93.888C401.67 94.096 402.462 94.2 403.262 94.2C404.35 94.2 405.214 94.016 405.854 93.648C406.51 93.264 406.838 92.752 406.838 92.112C406.838 91.52 406.574 91.064 406.046 90.744C405.534 90.424 404.806 90.264 403.862 90.264H401.534V88.608H403.694C404.558 88.608 405.238 88.456 405.734 88.152C406.23 87.848 406.478 87.432 406.478 86.904C406.478 86.328 406.182 85.88 405.59 85.56C405.014 85.24 404.23 85.08 403.238 85.08C401.974 85.08 400.638 85.408 399.23 86.064L398.606 84.288C400.158 83.504 401.782 83.112 403.478 83.112C404.502 83.112 405.422 83.256 406.238 83.544C407.054 83.832 407.694 84.24 408.158 84.768C408.622 85.296 408.854 85.896 408.854 86.568C408.854 87.192 408.646 87.752 408.23 88.248C407.814 88.744 407.254 89.12 406.55 89.376ZM417.252 83.16C419.012 83.16 420.356 83.592 421.284 84.456C422.228 85.32 422.7 86.608 422.7 88.32V96H420.516V94.32C420.132 94.912 419.58 95.368 418.86 95.688C418.156 95.992 417.316 96.144 416.34 96.144C414.916 96.144 413.772 95.8 412.908 95.112C412.06 94.424 411.636 93.52 411.636 92.4C411.636 91.28 412.044 90.384 412.86 89.712C413.676 89.024 414.972 88.68 416.748 88.68H420.396V88.224C420.396 87.232 420.108 86.472 419.532 85.944C418.956 85.416 418.108 85.152 416.988 85.152C416.236 85.152 415.5 85.28 414.78 85.536C414.06 85.776 413.452 86.104 412.956 86.52L411.996 84.792C412.652 84.264 413.436 83.864 414.348 83.592C415.26 83.304 416.228 83.16 417.252 83.16ZM416.724 94.368C417.604 94.368 418.364 94.176 419.004 93.792C419.644 93.392 420.108 92.832 420.396 92.112V90.336H416.844C414.892 90.336 413.916 90.992 413.916 92.304C413.916 92.944 414.164 93.448 414.66 93.816C415.156 94.184 415.844 94.368 416.724 94.368ZM437.769 83.28V96H435.465V85.296H429.993L429.849 88.128C429.769 89.84 429.617 91.272 429.393 92.424C429.169 93.56 428.801 94.472 428.289 95.16C427.777 95.848 427.065 96.192 426.153 96.192C425.737 96.192 425.265 96.12 424.737 95.976L424.881 94.032C425.089 94.08 425.281 94.104 425.457 94.104C426.097 94.104 426.577 93.824 426.897 93.264C427.217 92.704 427.425 92.04 427.521 91.272C427.617 90.504 427.705 89.408 427.785 87.984L428.001 83.28H437.769Z" fill="white"/>
<rect x="248" width="7" height="110" fill="white"/>
</svg>
