<svg width="495" height="110" viewBox="0 0 495 110" fill="none" xmlns="http://www.w3.org/2000/svg">
<path d="M3.99 57.82H20.86V64.33H3.99V57.82ZM35.4528 38.01C34.9861 38.3367 33.2828 38.8733 30.3428 39.62C27.9628 40.32 26.7495 40.6933 26.7028 40.74V33.53C28.5695 32.8767 30.5995 31.99 32.7928 30.87C35.0328 29.7033 36.6661 28.5133 37.6928 27.3H45.1828V84H35.4528V38.01ZM88.1464 84.28C82.5931 84.28 78.6264 82.88 76.2464 80.08C73.9131 77.28 72.7464 73.2433 72.7464 67.97V65.03H82.7564V68.04C82.7564 70.0467 82.8497 71.6333 83.0364 72.8C83.2231 73.92 83.6897 74.8533 84.4364 75.6C85.2297 76.3467 86.4664 76.72 88.1464 76.72C89.8264 76.72 91.0631 76.3467 91.8564 75.6C92.6964 74.8067 93.2331 73.78 93.4664 72.52C93.6997 71.2133 93.8164 69.51 93.8164 67.41V57.89H84.1564V52.15H93.8164V42.84C93.8164 39.62 93.3964 37.31 92.5564 35.91C91.7631 34.4633 90.2931 33.74 88.1464 33.74C86.5597 33.74 85.3697 34.1367 84.5764 34.93C83.7831 35.6767 83.2697 36.6567 83.0364 37.87C82.8497 39.0833 82.7564 40.7167 82.7564 42.77V45.99H72.7464V43.33C72.7464 37.87 73.8897 33.6467 76.1764 30.66C78.5097 27.6733 82.4997 26.18 88.1464 26.18C94.0731 26.18 98.2264 27.8133 100.606 31.08C103.033 34.3467 104.246 39.0133 104.246 45.08V65.24C104.246 71.4933 103.033 76.23 100.606 79.45C98.2264 82.67 94.0731 84.28 88.1464 84.28ZM117.606 34.93H108.576V27.3H136.786V34.93H127.966V84H117.606V34.93ZM150.416 27.3H161.476L172.816 84H163.226L160.986 70.91H151.116L148.806 84H139.076L150.416 27.3ZM159.866 64.33L156.016 40.53L152.166 64.33H159.866ZM187.128 55.3L175.368 27.3H185.098L195.388 54.25H195.878V27.3H204.208V54.25H204.768L214.988 27.3H224.788L213.028 55.3L225.558 84H215.968L204.838 56.07H204.208V84H195.878V56.07H195.318L184.118 84H174.598L187.128 55.3Z" fill="white"/>
<path d="M284.712 25.712C285.896 25.712 286.952 25.976 287.88 26.504C288.808 27.032 289.528 27.768 290.04 28.712C290.568 29.64 290.832 30.704 290.832 31.904C290.832 33.136 290.552 34.232 289.992 35.192C289.448 36.136 288.672 36.872 287.664 37.4C286.672 37.928 285.536 38.192 284.256 38.192C282.096 38.192 280.424 37.456 279.24 35.984C278.072 34.496 277.488 32.408 277.488 29.72C277.488 27.112 278.024 25.072 279.096 23.6C280.168 22.112 281.808 21.128 284.016 20.648L289.824 19.352L290.16 21.464L284.808 22.616C283.144 22.984 281.904 23.608 281.088 24.488C280.272 25.368 279.808 26.632 279.696 28.28C280.24 27.464 280.944 26.832 281.808 26.384C282.672 25.936 283.64 25.712 284.712 25.712ZM284.304 36.272C285.12 36.272 285.84 36.088 286.464 35.72C287.104 35.352 287.6 34.848 287.952 34.208C288.304 33.552 288.48 32.808 288.48 31.976C288.48 30.712 288.096 29.696 287.328 28.928C286.56 28.16 285.552 27.776 284.304 27.776C283.056 27.776 282.04 28.16 281.256 28.928C280.488 29.696 280.104 30.712 280.104 31.976C280.104 32.808 280.28 33.552 280.632 34.208C281 34.848 281.504 35.352 282.144 35.72C282.784 36.088 283.504 36.272 284.304 36.272ZM294.123 25.28H296.427V34.544L304.227 25.28H306.315V38H304.011V28.736L296.235 38H294.123V25.28ZM317.267 25.712C318.451 25.712 319.507 25.976 320.435 26.504C321.363 27.032 322.083 27.768 322.595 28.712C323.123 29.64 323.387 30.704 323.387 31.904C323.387 33.136 323.107 34.232 322.547 35.192C322.003 36.136 321.227 36.872 320.219 37.4C319.227 37.928 318.091 38.192 316.811 38.192C314.651 38.192 312.979 37.456 311.795 35.984C310.627 34.496 310.043 32.408 310.043 29.72C310.043 27.112 310.579 25.072 311.651 23.6C312.723 22.112 314.363 21.128 316.571 20.648L322.379 19.352L322.715 21.464L317.363 22.616C315.699 22.984 314.459 23.608 313.643 24.488C312.827 25.368 312.363 26.632 312.251 28.28C312.795 27.464 313.499 26.832 314.363 26.384C315.227 25.936 316.195 25.712 317.267 25.712ZM316.859 36.272C317.675 36.272 318.395 36.088 319.019 35.72C319.659 35.352 320.155 34.848 320.507 34.208C320.859 33.552 321.035 32.808 321.035 31.976C321.035 30.712 320.651 29.696 319.883 28.928C319.115 28.16 318.107 27.776 316.859 27.776C315.611 27.776 314.595 28.16 313.811 28.928C313.043 29.696 312.659 30.712 312.659 31.976C312.659 32.808 312.835 33.552 313.187 34.208C313.555 34.848 314.059 35.352 314.699 35.72C315.339 36.088 316.059 36.272 316.859 36.272ZM337.504 25.28V38H335.2V27.296H329.728L329.584 30.128C329.504 31.84 329.352 33.272 329.128 34.424C328.904 35.56 328.536 36.472 328.024 37.16C327.512 37.848 326.8 38.192 325.888 38.192C325.472 38.192 325 38.12 324.472 37.976L324.616 36.032C324.824 36.08 325.016 36.104 325.192 36.104C325.832 36.104 326.312 35.824 326.632 35.264C326.952 34.704 327.16 34.04 327.256 33.272C327.352 32.504 327.44 31.408 327.52 29.984L327.736 25.28H337.504ZM341.959 25.28H344.263V34.544L352.063 25.28H354.151V38H351.847V28.736L344.071 38H341.959V25.28ZM364.071 38.144C362.807 38.144 361.671 37.864 360.663 37.304C359.655 36.744 358.863 35.976 358.287 35C357.727 34.008 357.447 32.888 357.447 31.64C357.447 30.392 357.727 29.28 358.287 28.304C358.863 27.312 359.655 26.544 360.663 26C361.671 25.44 362.807 25.16 364.071 25.16C365.335 25.16 366.463 25.44 367.455 26C368.463 26.544 369.247 27.312 369.807 28.304C370.383 29.28 370.671 30.392 370.671 31.64C370.671 32.888 370.383 34.008 369.807 35C369.247 35.976 368.463 36.744 367.455 37.304C366.463 37.864 365.335 38.144 364.071 38.144ZM364.071 36.128C364.887 36.128 365.615 35.944 366.255 35.576C366.911 35.192 367.423 34.664 367.791 33.992C368.159 33.304 368.343 32.52 368.343 31.64C368.343 30.76 368.159 29.984 367.791 29.312C367.423 28.624 366.911 28.096 366.255 27.728C365.615 27.36 364.887 27.176 364.071 27.176C363.255 27.176 362.519 27.36 361.863 27.728C361.223 28.096 360.711 28.624 360.327 29.312C359.959 29.984 359.775 30.76 359.775 31.64C359.775 32.52 359.959 33.304 360.327 33.992C360.711 34.664 361.223 35.192 361.863 35.576C362.519 35.944 363.255 36.128 364.071 36.128ZM383.009 27.296H378.353V38H376.049V27.296H371.393V25.28H383.009V27.296ZM396.298 31.712C396.298 31.888 396.282 32.12 396.25 32.408H385.93C386.074 33.528 386.562 34.432 387.394 35.12C388.242 35.792 389.29 36.128 390.538 36.128C392.058 36.128 393.282 35.616 394.21 34.592L395.482 36.08C394.906 36.752 394.186 37.264 393.322 37.616C392.474 37.968 391.522 38.144 390.466 38.144C389.122 38.144 387.93 37.872 386.89 37.328C385.85 36.768 385.042 35.992 384.466 35C383.906 34.008 383.626 32.888 383.626 31.64C383.626 30.408 383.898 29.296 384.442 28.304C385.002 27.312 385.762 26.544 386.722 26C387.698 25.44 388.794 25.16 390.01 25.16C391.226 25.16 392.306 25.44 393.25 26C394.21 26.544 394.954 27.312 395.482 28.304C396.026 29.296 396.298 30.432 396.298 31.712ZM390.01 27.104C388.906 27.104 387.978 27.44 387.226 28.112C386.49 28.784 386.058 29.664 385.93 30.752H394.09C393.962 29.68 393.522 28.808 392.77 28.136C392.034 27.448 391.114 27.104 390.01 27.104ZM404.817 32.624H402.177V38H399.873V25.28H402.177V30.656H404.865L408.993 25.28H411.465L406.641 31.4L411.801 38H409.089L404.817 32.624ZM418.518 25.16C420.278 25.16 421.622 25.592 422.55 26.456C423.494 27.32 423.966 28.608 423.966 30.32V38H421.782V36.32C421.398 36.912 420.846 37.368 420.126 37.688C419.422 37.992 418.582 38.144 417.606 38.144C416.182 38.144 415.038 37.8 414.174 37.112C413.326 36.424 412.902 35.52 412.902 34.4C412.902 33.28 413.31 32.384 414.126 31.712C414.942 31.024 416.238 30.68 418.014 30.68H421.662V30.224C421.662 29.232 421.374 28.472 420.798 27.944C420.222 27.416 419.374 27.152 418.254 27.152C417.502 27.152 416.766 27.28 416.046 27.536C415.326 27.776 414.718 28.104 414.222 28.52L413.262 26.792C413.918 26.264 414.702 25.864 415.614 25.592C416.526 25.304 417.494 25.16 418.518 25.16ZM417.99 36.368C418.87 36.368 419.63 36.176 420.27 35.792C420.91 35.392 421.374 34.832 421.662 34.112V32.336H418.11C416.158 32.336 415.182 32.992 415.182 34.304C415.182 34.944 415.43 35.448 415.926 35.816C416.422 36.184 417.11 36.368 417.99 36.368Z" fill="white"/>
<path d="M286.896 60.4C288.544 60.816 289.368 61.848 289.368 63.496C289.368 64.616 288.944 65.48 288.096 66.088C287.264 66.696 286.016 67 284.352 67H278.232V54.28H284.136C285.64 54.28 286.816 54.568 287.664 55.144C288.512 55.704 288.936 56.504 288.936 57.544C288.936 58.216 288.752 58.8 288.384 59.296C288.032 59.776 287.536 60.144 286.896 60.4ZM280.488 59.752H283.944C284.824 59.752 285.488 59.592 285.936 59.272C286.4 58.952 286.632 58.488 286.632 57.88C286.632 56.664 285.736 56.056 283.944 56.056H280.488V59.752ZM284.184 65.224C285.144 65.224 285.864 65.072 286.344 64.768C286.824 64.464 287.064 63.992 287.064 63.352C287.064 62.696 286.84 62.208 286.392 61.888C285.96 61.568 285.272 61.408 284.328 61.408H280.488V65.224H284.184ZM292.974 54.28H295.278V63.544L303.078 54.28H305.166V67H302.862V57.736L295.086 67H292.974V54.28ZM309.638 54.28H311.942V59.68H319.19V54.28H321.494V67H319.19V61.672H311.942V67H309.638V54.28ZM325.974 54.28H328.278V59.68H335.526V54.28H337.83V67H335.526V61.672H328.278V67H325.974V54.28ZM348.046 58.6C349.646 58.616 350.87 58.984 351.718 59.704C352.566 60.424 352.99 61.44 352.99 62.752C352.99 64.128 352.526 65.192 351.598 65.944C350.686 66.68 349.374 67.04 347.662 67.024L342.31 67V54.28H344.614V58.576L348.046 58.6ZM354.886 54.28H357.19V67H354.886V54.28ZM347.494 65.272C348.534 65.288 349.318 65.08 349.846 64.648C350.39 64.216 350.662 63.576 350.662 62.728C350.662 61.896 350.398 61.288 349.87 60.904C349.342 60.52 348.55 60.32 347.494 60.304L344.614 60.256V65.248L347.494 65.272ZM361.67 54.28H363.974V63.544L371.773 54.28H373.862V67H371.557V57.736L363.782 67H361.67V54.28ZM367.622 52.624C366.438 52.624 365.518 52.344 364.862 51.784C364.206 51.208 363.87 50.384 363.854 49.312H365.414C365.43 49.904 365.63 50.384 366.014 50.752C366.414 51.104 366.942 51.28 367.598 51.28C368.254 51.28 368.782 51.104 369.182 50.752C369.582 50.384 369.79 49.904 369.806 49.312H371.414C371.398 50.384 371.054 51.208 370.382 51.784C369.71 52.344 368.79 52.624 367.622 52.624ZM402.899 54.28V67H384.779V54.28H387.083V64.984H392.699V54.28H395.003V64.984H400.595V54.28H402.899ZM412.317 61.624H409.677V67H407.373V54.28H409.677V59.656H412.365L416.493 54.28H418.965L414.141 60.4L419.301 67H416.589L412.317 61.624ZM426.018 54.16C427.778 54.16 429.122 54.592 430.05 55.456C430.994 56.32 431.466 57.608 431.466 59.32V67H429.282V65.32C428.898 65.912 428.346 66.368 427.626 66.688C426.922 66.992 426.082 67.144 425.106 67.144C423.682 67.144 422.538 66.8 421.674 66.112C420.826 65.424 420.402 64.52 420.402 63.4C420.402 62.28 420.81 61.384 421.626 60.712C422.442 60.024 423.738 59.68 425.514 59.68H429.162V59.224C429.162 58.232 428.874 57.472 428.298 56.944C427.722 56.416 426.874 56.152 425.754 56.152C425.002 56.152 424.266 56.28 423.546 56.536C422.826 56.776 422.218 57.104 421.722 57.52L420.762 55.792C421.418 55.264 422.202 54.864 423.114 54.592C424.026 54.304 424.994 54.16 426.018 54.16ZM425.49 65.368C426.37 65.368 427.13 65.176 427.77 64.792C428.41 64.392 428.874 63.832 429.162 63.112V61.336H425.61C423.658 61.336 422.682 61.992 422.682 63.304C422.682 63.944 422.93 64.448 423.426 64.816C423.922 65.184 424.61 65.368 425.49 65.368ZM451.671 60.616C451.671 62.584 451.015 64.136 449.703 65.272C448.391 66.408 446.543 67.04 444.159 67.168V71.656H441.903V67.168C439.519 67.04 437.671 66.416 436.359 65.296C435.063 64.16 434.415 62.6 434.415 60.616C434.415 58.648 435.063 57.112 436.359 56.008C437.655 54.904 439.503 54.288 441.903 54.16V49.192H444.159V54.16C446.543 54.288 448.391 54.912 449.703 56.032C451.015 57.136 451.671 58.664 451.671 60.616ZM436.695 60.616C436.695 61.976 437.127 63.04 437.991 63.808C438.871 64.576 440.175 65.016 441.903 65.128V56.2C440.159 56.312 438.855 56.744 437.991 57.496C437.127 58.248 436.695 59.288 436.695 60.616ZM444.159 65.152C447.647 64.88 449.391 63.368 449.391 60.616C449.391 59.272 448.951 58.232 448.071 57.496C447.191 56.744 445.887 56.312 444.159 56.2V65.152Z" fill="white"/>
<path d="M278.232 83.28H280.536V92.544L288.336 83.28H290.424V96H288.12V86.736L280.344 96H278.232V83.28ZM294.896 83.28H297.2V88.68H304.448V83.28H306.752V96H304.448V90.672H297.2V96H294.896V83.28ZM327.288 89.616C327.288 91.584 326.632 93.136 325.32 94.272C324.008 95.408 322.16 96.04 319.776 96.168V100.656H317.52V96.168C315.136 96.04 313.288 95.416 311.976 94.296C310.68 93.16 310.032 91.6 310.032 89.616C310.032 87.648 310.68 86.112 311.976 85.008C313.272 83.904 315.12 83.288 317.52 83.16V78.192H319.776V83.16C322.16 83.288 324.008 83.912 325.32 85.032C326.632 86.136 327.288 87.664 327.288 89.616ZM312.312 89.616C312.312 90.976 312.744 92.04 313.608 92.808C314.488 93.576 315.792 94.016 317.52 94.128V85.2C315.776 85.312 314.472 85.744 313.608 86.496C312.744 87.248 312.312 88.288 312.312 89.616ZM319.776 94.152C323.264 93.88 325.008 92.368 325.008 89.616C325.008 88.272 324.568 87.232 323.688 86.496C322.808 85.744 321.504 85.312 319.776 85.2V94.152ZM335.993 96.144C334.729 96.144 333.593 95.864 332.585 95.304C331.577 94.744 330.785 93.976 330.209 93C329.649 92.008 329.369 90.888 329.369 89.64C329.369 88.392 329.649 87.28 330.209 86.304C330.785 85.312 331.577 84.544 332.585 84C333.593 83.44 334.729 83.16 335.993 83.16C337.257 83.16 338.385 83.44 339.377 84C340.385 84.544 341.169 85.312 341.729 86.304C342.305 87.28 342.593 88.392 342.593 89.64C342.593 90.888 342.305 92.008 341.729 93C341.169 93.976 340.385 94.744 339.377 95.304C338.385 95.864 337.257 96.144 335.993 96.144ZM335.993 94.128C336.809 94.128 337.537 93.944 338.177 93.576C338.833 93.192 339.345 92.664 339.713 91.992C340.081 91.304 340.265 90.52 340.265 89.64C340.265 88.76 340.081 87.984 339.713 87.312C339.345 86.624 338.833 86.096 338.177 85.728C337.537 85.36 336.809 85.176 335.993 85.176C335.177 85.176 334.441 85.36 333.785 85.728C333.145 86.096 332.633 86.624 332.249 87.312C331.881 87.984 331.697 88.76 331.697 89.64C331.697 90.52 331.881 91.304 332.249 91.992C332.633 92.664 333.145 93.192 333.785 93.576C334.441 93.944 335.177 94.128 335.993 94.128ZM345.29 88.416H351.746V90.408H345.29V88.416ZM368.925 93.984V99.048H366.741V96H355.341V83.28H357.645V93.984H364.605V83.28H366.909V93.984H368.925ZM383.408 89.712C383.408 89.888 383.392 90.12 383.36 90.408H373.04C373.184 91.528 373.672 92.432 374.504 93.12C375.352 93.792 376.4 94.128 377.648 94.128C379.168 94.128 380.392 93.616 381.32 92.592L382.592 94.08C382.016 94.752 381.296 95.264 380.432 95.616C379.584 95.968 378.632 96.144 377.576 96.144C376.232 96.144 375.04 95.872 374 95.328C372.96 94.768 372.152 93.992 371.576 93C371.016 92.008 370.736 90.888 370.736 89.64C370.736 88.408 371.008 87.296 371.552 86.304C372.112 85.312 372.872 84.544 373.832 84C374.808 83.44 375.904 83.16 377.12 83.16C378.336 83.16 379.416 83.44 380.36 84C381.32 84.544 382.064 85.312 382.592 86.304C383.136 87.296 383.408 88.432 383.408 89.712ZM377.12 85.104C376.016 85.104 375.088 85.44 374.336 86.112C373.6 86.784 373.168 87.664 373.04 88.752H381.2C381.072 87.68 380.632 86.808 379.88 86.136C379.144 85.448 378.224 85.104 377.12 85.104ZM386.982 83.28H389.286V88.68H396.534V83.28H398.838V96H396.534V90.672H389.286V96H386.982V83.28ZM412.798 85.296H408.142V96H405.838V85.296H401.182V83.28H412.798V85.296ZM421.898 83.16C423.13 83.16 424.234 83.432 425.21 83.976C426.186 84.52 426.946 85.28 427.49 86.256C428.05 87.232 428.33 88.36 428.33 89.64C428.33 90.92 428.05 92.056 427.49 93.048C426.946 94.024 426.186 94.784 425.21 95.328C424.234 95.872 423.13 96.144 421.898 96.144C420.986 96.144 420.146 95.968 419.378 95.616C418.626 95.264 417.986 94.752 417.458 94.08V100.656H415.154V83.28H417.362V85.296C417.874 84.592 418.522 84.064 419.306 83.712C420.09 83.344 420.954 83.16 421.898 83.16ZM421.706 94.128C422.522 94.128 423.25 93.944 423.89 93.576C424.546 93.192 425.058 92.664 425.426 91.992C425.81 91.304 426.002 90.52 426.002 89.64C426.002 88.76 425.81 87.984 425.426 87.312C425.058 86.624 424.546 86.096 423.89 85.728C423.25 85.36 422.522 85.176 421.706 85.176C420.906 85.176 420.178 85.368 419.522 85.752C418.882 86.12 418.37 86.64 417.986 87.312C417.618 87.984 417.434 88.76 417.434 89.64C417.434 90.52 417.618 91.304 417.986 91.992C418.354 92.664 418.866 93.192 419.522 93.576C420.178 93.944 420.906 94.128 421.706 94.128Z" fill="white"/>
<rect x="248" width="7" height="110" fill="white"/>
</svg>
