<svg width="495" height="110" viewBox="0 0 495 110" fill="none" xmlns="http://www.w3.org/2000/svg">
<path d="M21.579 77.14L35.579 55.51C35.8123 55.1367 36.0223 54.81 36.209 54.53C36.3957 54.25 36.559 53.9933 36.699 53.76C38.379 51.1467 39.6157 48.9767 40.409 47.25C41.2023 45.5233 41.599 43.5633 41.599 41.37C41.599 36.9833 40.059 34.79 36.979 34.79C34.879 34.79 33.409 35.6067 32.569 37.24C31.729 38.8733 31.309 41.0667 31.309 43.82V46.2H21.789V43.68C21.789 38.36 22.979 34.2067 25.359 31.22C27.7857 28.1867 31.5657 26.67 36.699 26.67C41.459 26.67 45.0757 27.9767 47.549 30.59C50.0223 33.1567 51.259 36.7733 51.259 41.44C51.259 44.3333 50.7457 46.9 49.719 49.14C48.739 51.38 47.199 54.1333 45.099 57.4L44.259 58.66L32.569 76.23H49.789V84H21.579V77.14ZM89.287 84.28C83.7337 84.28 79.767 82.88 77.387 80.08C75.0537 77.28 73.887 73.2433 73.887 67.97V65.03H83.897V68.04C83.897 70.0467 83.9904 71.6333 84.177 72.8C84.3637 73.92 84.8304 74.8533 85.577 75.6C86.3704 76.3467 87.607 76.72 89.287 76.72C90.967 76.72 92.2037 76.3467 92.997 75.6C93.837 74.8067 94.3737 73.78 94.607 72.52C94.8404 71.2133 94.957 69.51 94.957 67.41V57.89H85.297V52.15H94.957V42.84C94.957 39.62 94.537 37.31 93.697 35.91C92.9037 34.4633 91.4337 33.74 89.287 33.74C87.7004 33.74 86.5104 34.1367 85.717 34.93C84.9237 35.6767 84.4104 36.6567 84.177 37.87C83.9904 39.0833 83.897 40.7167 83.897 42.77V45.99H73.887V43.33C73.887 37.87 75.0304 33.6467 77.317 30.66C79.6504 27.6733 83.6404 26.18 89.287 26.18C95.2137 26.18 99.367 27.8133 101.747 31.08C104.174 34.3467 105.387 39.0133 105.387 45.08V65.24C105.387 71.4933 104.174 76.23 101.747 79.45C99.367 82.67 95.2137 84.28 89.287 84.28ZM118.747 34.93H109.717V27.3H137.927V34.93H129.107V84H118.747V34.93ZM151.556 27.3H162.616L173.956 84H164.366L162.126 70.91H152.256L149.946 84H140.216L151.556 27.3ZM161.006 64.33L157.156 40.53L153.306 64.33H161.006ZM188.269 55.3L176.509 27.3H186.239L196.529 54.25H197.019V27.3H205.349V54.25H205.909L216.129 27.3H225.929L214.169 55.3L226.699 84H217.109L205.979 56.07H205.349V84H197.019V56.07H196.459L185.259 84H175.739L188.269 55.3Z" fill="white"/>
<path d="M284.712 25.712C285.896 25.712 286.952 25.976 287.88 26.504C288.808 27.032 289.528 27.768 290.04 28.712C290.568 29.64 290.832 30.704 290.832 31.904C290.832 33.136 290.552 34.232 289.992 35.192C289.448 36.136 288.672 36.872 287.664 37.4C286.672 37.928 285.536 38.192 284.256 38.192C282.096 38.192 280.424 37.456 279.24 35.984C278.072 34.496 277.488 32.408 277.488 29.72C277.488 27.112 278.024 25.072 279.096 23.6C280.168 22.112 281.808 21.128 284.016 20.648L289.824 19.352L290.16 21.464L284.808 22.616C283.144 22.984 281.904 23.608 281.088 24.488C280.272 25.368 279.808 26.632 279.696 28.28C280.24 27.464 280.944 26.832 281.808 26.384C282.672 25.936 283.64 25.712 284.712 25.712ZM284.304 36.272C285.12 36.272 285.84 36.088 286.464 35.72C287.104 35.352 287.6 34.848 287.952 34.208C288.304 33.552 288.48 32.808 288.48 31.976C288.48 30.712 288.096 29.696 287.328 28.928C286.56 28.16 285.552 27.776 284.304 27.776C283.056 27.776 282.04 28.16 281.256 28.928C280.488 29.696 280.104 30.712 280.104 31.976C280.104 32.808 280.28 33.552 280.632 34.208C281 34.848 281.504 35.352 282.144 35.72C282.784 36.088 283.504 36.272 284.304 36.272ZM298.541 25.16C300.301 25.16 301.645 25.592 302.573 26.456C303.517 27.32 303.989 28.608 303.989 30.32V38H301.805V36.32C301.421 36.912 300.869 37.368 300.149 37.688C299.445 37.992 298.605 38.144 297.629 38.144C296.205 38.144 295.061 37.8 294.197 37.112C293.349 36.424 292.925 35.52 292.925 34.4C292.925 33.28 293.333 32.384 294.149 31.712C294.965 31.024 296.261 30.68 298.037 30.68H301.685V30.224C301.685 29.232 301.397 28.472 300.821 27.944C300.245 27.416 299.397 27.152 298.277 27.152C297.525 27.152 296.789 27.28 296.069 27.536C295.349 27.776 294.741 28.104 294.245 28.52L293.285 26.792C293.941 26.264 294.725 25.864 295.637 25.592C296.549 25.304 297.517 25.16 298.541 25.16ZM298.013 36.368C298.893 36.368 299.653 36.176 300.293 35.792C300.933 35.392 301.397 34.832 301.685 34.112V32.336H298.133C296.181 32.336 295.205 32.992 295.205 34.304C295.205 34.944 295.453 35.448 295.949 35.816C296.445 36.184 297.133 36.368 298.013 36.368ZM313.682 38.144C312.386 38.144 311.226 37.864 310.202 37.304C309.194 36.744 308.402 35.976 307.826 35C307.25 34.008 306.962 32.888 306.962 31.64C306.962 30.392 307.25 29.28 307.826 28.304C308.402 27.312 309.194 26.544 310.202 26C311.226 25.44 312.386 25.16 313.682 25.16C314.834 25.16 315.858 25.392 316.754 25.856C317.666 26.32 318.37 26.992 318.866 27.872L317.114 29C316.714 28.392 316.218 27.936 315.626 27.632C315.034 27.328 314.378 27.176 313.658 27.176C312.826 27.176 312.074 27.36 311.402 27.728C310.746 28.096 310.226 28.624 309.842 29.312C309.474 29.984 309.29 30.76 309.29 31.64C309.29 32.536 309.474 33.328 309.842 34.016C310.226 34.688 310.746 35.208 311.402 35.576C312.074 35.944 312.826 36.128 313.658 36.128C314.378 36.128 315.034 35.976 315.626 35.672C316.218 35.368 316.714 34.912 317.114 34.304L318.866 35.408C318.37 36.288 317.666 36.968 316.754 37.448C315.858 37.912 314.834 38.144 313.682 38.144ZM327.206 38.144C325.91 38.144 324.75 37.864 323.726 37.304C322.718 36.744 321.926 35.976 321.35 35C320.774 34.008 320.486 32.888 320.486 31.64C320.486 30.392 320.774 29.28 321.35 28.304C321.926 27.312 322.718 26.544 323.726 26C324.75 25.44 325.91 25.16 327.206 25.16C328.358 25.16 329.382 25.392 330.278 25.856C331.19 26.32 331.894 26.992 332.39 27.872L330.638 29C330.238 28.392 329.742 27.936 329.15 27.632C328.558 27.328 327.902 27.176 327.182 27.176C326.35 27.176 325.598 27.36 324.926 27.728C324.27 28.096 323.75 28.624 323.366 29.312C322.998 29.984 322.814 30.76 322.814 31.64C322.814 32.536 322.998 33.328 323.366 34.016C323.75 34.688 324.27 35.208 324.926 35.576C325.598 35.944 326.35 36.128 327.182 36.128C327.902 36.128 328.558 35.976 329.15 35.672C329.742 35.368 330.238 34.912 330.638 34.304L332.39 35.408C331.894 36.288 331.19 36.968 330.278 37.448C329.382 37.912 328.358 38.144 327.206 38.144ZM346.681 31.712C346.681 31.888 346.665 32.12 346.633 32.408H336.313C336.457 33.528 336.945 34.432 337.777 35.12C338.625 35.792 339.673 36.128 340.921 36.128C342.441 36.128 343.665 35.616 344.593 34.592L345.865 36.08C345.289 36.752 344.569 37.264 343.705 37.616C342.857 37.968 341.905 38.144 340.849 38.144C339.505 38.144 338.313 37.872 337.273 37.328C336.233 36.768 335.425 35.992 334.849 35C334.289 34.008 334.009 32.888 334.009 31.64C334.009 30.408 334.281 29.296 334.825 28.304C335.385 27.312 336.145 26.544 337.105 26C338.081 25.44 339.177 25.16 340.393 25.16C341.609 25.16 342.689 25.44 343.633 26C344.593 26.544 345.337 27.312 345.865 28.304C346.409 29.296 346.681 30.432 346.681 31.712ZM340.393 27.104C339.289 27.104 338.361 27.44 337.609 28.112C336.873 28.784 336.441 29.664 336.313 30.752H344.473C344.345 29.68 343.905 28.808 343.153 28.136C342.417 27.448 341.497 27.104 340.393 27.104ZM350.255 25.28H352.559V34.544L360.359 25.28H362.447V38H360.143V28.736L352.367 38H350.255V25.28ZM356.207 23.624C355.023 23.624 354.103 23.344 353.447 22.784C352.791 22.208 352.455 21.384 352.439 20.312H353.999C354.015 20.904 354.215 21.384 354.599 21.752C354.999 22.104 355.527 22.28 356.183 22.28C356.839 22.28 357.367 22.104 357.767 21.752C358.167 21.384 358.375 20.904 358.391 20.312H359.999C359.983 21.384 359.639 22.208 358.967 22.784C358.295 23.344 357.375 23.624 356.207 23.624ZM366.92 25.28H369.224V30.68H376.472V25.28H378.776V38H376.472V32.672H369.224V38H366.92V25.28Z" fill="white"/>
<path d="M291.168 64.984V69.952H289.008V67H278.376V69.952H276.192V64.984H276.864C277.68 64.936 278.24 64.36 278.544 63.256C278.848 62.152 279.056 60.592 279.168 58.576L279.36 54.28H289.224V64.984H291.168ZM281.28 58.744C281.216 60.344 281.08 61.672 280.872 62.728C280.68 63.768 280.32 64.52 279.792 64.984H286.92V56.296H281.4L281.28 58.744ZM305.522 54.28L299.354 68.272C298.81 69.568 298.17 70.48 297.434 71.008C296.714 71.536 295.842 71.8 294.818 71.8C294.194 71.8 293.586 71.696 292.994 71.488C292.418 71.296 291.938 71.008 291.553 70.624L292.538 68.896C293.193 69.52 293.954 69.832 294.818 69.832C295.378 69.832 295.842 69.68 296.21 69.376C296.594 69.088 296.938 68.584 297.242 67.864L297.65 66.976L292.034 54.28H294.434L298.874 64.456L303.266 54.28H305.522ZM326 54.28V67H307.88V54.28H310.184V64.984H315.8V54.28H318.104V64.984H323.696V54.28H326ZM336.21 58.6C337.81 58.616 339.034 58.984 339.882 59.704C340.73 60.424 341.154 61.44 341.154 62.752C341.154 64.128 340.69 65.192 339.762 65.944C338.85 66.68 337.538 67.04 335.826 67.024L330.474 67V54.28H332.778V58.576L336.21 58.6ZM343.05 54.28H345.354V67H343.05V54.28ZM335.658 65.272C336.698 65.288 337.482 65.08 338.01 64.648C338.554 64.216 338.826 63.576 338.826 62.728C338.826 61.896 338.562 61.288 338.034 60.904C337.506 60.52 336.714 60.32 335.658 60.304L332.778 60.256V65.248L335.658 65.272Z" fill="white"/>
<path d="M283.68 96.144C282.416 96.144 281.28 95.864 280.272 95.304C279.264 94.744 278.472 93.976 277.896 93C277.336 92.008 277.056 90.888 277.056 89.64C277.056 88.392 277.336 87.28 277.896 86.304C278.472 85.312 279.264 84.544 280.272 84C281.28 83.44 282.416 83.16 283.68 83.16C284.944 83.16 286.072 83.44 287.064 84C288.072 84.544 288.856 85.312 289.416 86.304C289.992 87.28 290.28 88.392 290.28 89.64C290.28 90.888 289.992 92.008 289.416 93C288.856 93.976 288.072 94.744 287.064 95.304C286.072 95.864 284.944 96.144 283.68 96.144ZM283.68 94.128C284.496 94.128 285.224 93.944 285.864 93.576C286.52 93.192 287.032 92.664 287.4 91.992C287.768 91.304 287.952 90.52 287.952 89.64C287.952 88.76 287.768 87.984 287.4 87.312C287.032 86.624 286.52 86.096 285.864 85.728C285.224 85.36 284.496 85.176 283.68 85.176C282.864 85.176 282.128 85.36 281.472 85.728C280.832 86.096 280.32 86.624 279.936 87.312C279.568 87.984 279.384 88.76 279.384 89.64C279.384 90.52 279.568 91.304 279.936 91.992C280.32 92.664 280.832 93.192 281.472 93.576C282.128 93.944 282.864 94.128 283.68 94.128ZM300.087 83.712C301.271 83.712 302.327 83.976 303.255 84.504C304.183 85.032 304.903 85.768 305.415 86.712C305.943 87.64 306.207 88.704 306.207 89.904C306.207 91.136 305.927 92.232 305.367 93.192C304.823 94.136 304.047 94.872 303.039 95.4C302.047 95.928 300.911 96.192 299.631 96.192C297.471 96.192 295.799 95.456 294.615 93.984C293.447 92.496 292.863 90.408 292.863 87.72C292.863 85.112 293.399 83.072 294.471 81.6C295.543 80.112 297.183 79.128 299.391 78.648L305.199 77.352L305.535 79.464L300.183 80.616C298.519 80.984 297.279 81.608 296.463 82.488C295.647 83.368 295.183 84.632 295.071 86.28C295.615 85.464 296.319 84.832 297.183 84.384C298.047 83.936 299.015 83.712 300.087 83.712ZM299.679 94.272C300.495 94.272 301.215 94.088 301.839 93.72C302.479 93.352 302.975 92.848 303.327 92.208C303.679 91.552 303.855 90.808 303.855 89.976C303.855 88.712 303.471 87.696 302.703 86.928C301.935 86.16 300.927 85.776 299.679 85.776C298.431 85.776 297.415 86.16 296.631 86.928C295.863 87.696 295.479 88.712 295.479 89.976C295.479 90.808 295.655 91.552 296.007 92.208C296.375 92.848 296.879 93.352 297.519 93.72C298.159 94.088 298.879 94.272 299.679 94.272ZM316.245 89.376C317.093 89.6 317.749 89.96 318.213 90.456C318.677 90.952 318.909 91.568 318.909 92.304C318.909 93.056 318.653 93.728 318.141 94.32C317.629 94.896 316.917 95.352 316.005 95.688C315.109 96.008 314.101 96.168 312.981 96.168C312.037 96.168 311.109 96.048 310.197 95.808C309.301 95.552 308.501 95.192 307.797 94.728L308.493 92.976C309.101 93.36 309.797 93.664 310.581 93.888C311.365 94.096 312.157 94.2 312.957 94.2C314.045 94.2 314.909 94.016 315.549 93.648C316.205 93.264 316.533 92.752 316.533 92.112C316.533 91.52 316.269 91.064 315.741 90.744C315.229 90.424 314.501 90.264 313.557 90.264H311.229V88.608H313.389C314.253 88.608 314.933 88.456 315.429 88.152C315.925 87.848 316.173 87.432 316.173 86.904C316.173 86.328 315.877 85.88 315.285 85.56C314.709 85.24 313.925 85.08 312.933 85.08C311.669 85.08 310.333 85.408 308.925 86.064L308.301 84.288C309.853 83.504 311.477 83.112 313.173 83.112C314.197 83.112 315.117 83.256 315.933 83.544C316.749 83.832 317.389 84.24 317.853 84.768C318.317 85.296 318.549 85.896 318.549 86.568C318.549 87.192 318.341 87.752 317.925 88.248C317.509 88.744 316.949 89.12 316.245 89.376ZM327.86 96.144C326.596 96.144 325.46 95.864 324.452 95.304C323.444 94.744 322.652 93.976 322.076 93C321.516 92.008 321.236 90.888 321.236 89.64C321.236 88.392 321.516 87.28 322.076 86.304C322.652 85.312 323.444 84.544 324.452 84C325.46 83.44 326.596 83.16 327.86 83.16C329.124 83.16 330.252 83.44 331.244 84C332.252 84.544 333.036 85.312 333.596 86.304C334.172 87.28 334.46 88.392 334.46 89.64C334.46 90.888 334.172 92.008 333.596 93C333.036 93.976 332.252 94.744 331.244 95.304C330.252 95.864 329.124 96.144 327.86 96.144ZM327.86 94.128C328.676 94.128 329.404 93.944 330.044 93.576C330.7 93.192 331.212 92.664 331.58 91.992C331.948 91.304 332.132 90.52 332.132 89.64C332.132 88.76 331.948 87.984 331.58 87.312C331.212 86.624 330.7 86.096 330.044 85.728C329.404 85.36 328.676 85.176 327.86 85.176C327.044 85.176 326.308 85.36 325.652 85.728C325.012 86.096 324.5 86.624 324.116 87.312C323.748 87.984 323.564 88.76 323.564 89.64C323.564 90.52 323.748 91.304 324.116 91.992C324.5 92.664 325.012 93.192 325.652 93.576C326.308 93.944 327.044 94.128 327.86 94.128ZM344.531 83.16C345.763 83.16 346.867 83.432 347.843 83.976C348.819 84.52 349.579 85.28 350.123 86.256C350.683 87.232 350.963 88.36 350.963 89.64C350.963 90.92 350.683 92.056 350.123 93.048C349.579 94.024 348.819 94.784 347.843 95.328C346.867 95.872 345.763 96.144 344.531 96.144C343.619 96.144 342.779 95.968 342.011 95.616C341.259 95.264 340.619 94.752 340.091 94.08V100.656H337.787V83.28H339.995V85.296C340.507 84.592 341.155 84.064 341.939 83.712C342.723 83.344 343.587 83.16 344.531 83.16ZM344.339 94.128C345.155 94.128 345.883 93.944 346.523 93.576C347.179 93.192 347.691 92.664 348.059 91.992C348.443 91.304 348.635 90.52 348.635 89.64C348.635 88.76 348.443 87.984 348.059 87.312C347.691 86.624 347.179 86.096 346.523 85.728C345.883 85.36 345.155 85.176 344.339 85.176C343.539 85.176 342.811 85.368 342.155 85.752C341.515 86.12 341.003 86.64 340.619 87.312C340.251 87.984 340.067 88.76 340.067 89.64C340.067 90.52 340.251 91.304 340.619 91.992C340.987 92.664 341.499 93.192 342.155 93.576C342.811 93.944 343.539 94.128 344.339 94.128ZM354.31 83.28H356.614V88.68H363.862V83.28H366.166V96H363.862V90.672H356.614V96H354.31V83.28ZM376.382 87.6C377.982 87.616 379.206 87.984 380.054 88.704C380.902 89.424 381.326 90.44 381.326 91.752C381.326 93.128 380.862 94.192 379.934 94.944C379.022 95.68 377.71 96.04 375.998 96.024L370.646 96V83.28H372.95V87.576L376.382 87.6ZM383.222 83.28H385.526V96H383.222V83.28ZM375.83 94.272C376.87 94.288 377.654 94.08 378.182 93.648C378.726 93.216 378.998 92.576 378.998 91.728C378.998 90.896 378.734 90.288 378.206 89.904C377.678 89.52 376.886 89.32 375.83 89.304L372.95 89.256V94.248L375.83 94.272ZM390.005 83.28H392.309V92.544L400.109 83.28H402.197V96H399.893V86.736L392.117 96H390.005V83.28ZM395.957 81.624C394.773 81.624 393.853 81.344 393.197 80.784C392.541 80.208 392.205 79.384 392.189 78.312H393.749C393.765 78.904 393.965 79.384 394.349 79.752C394.749 80.104 395.277 80.28 395.933 80.28C396.589 80.28 397.117 80.104 397.517 79.752C397.917 79.384 398.125 78.904 398.141 78.312H399.749C399.733 79.384 399.389 80.208 398.717 80.784C398.045 81.344 397.125 81.624 395.957 81.624ZM421.779 89.4C423.427 89.816 424.251 90.848 424.251 92.496C424.251 93.616 423.827 94.48 422.979 95.088C422.147 95.696 420.899 96 419.235 96H413.115V83.28H419.019C420.523 83.28 421.699 83.568 422.547 84.144C423.395 84.704 423.819 85.504 423.819 86.544C423.819 87.216 423.635 87.8 423.267 88.296C422.915 88.776 422.419 89.144 421.779 89.4ZM415.371 88.752H418.827C419.707 88.752 420.371 88.592 420.819 88.272C421.283 87.952 421.515 87.488 421.515 86.88C421.515 85.664 420.619 85.056 418.827 85.056H415.371V88.752ZM419.067 94.224C420.027 94.224 420.747 94.072 421.227 93.768C421.707 93.464 421.947 92.992 421.947 92.352C421.947 91.696 421.723 91.208 421.275 90.888C420.843 90.568 420.155 90.408 419.211 90.408H415.371V94.224H419.067ZM427.857 83.28H430.161V92.544L437.961 83.28H440.049V96H437.745V86.736L429.969 96H427.857V83.28ZM457.457 93.984V98.952H455.297V96H444.665V98.952H442.481V93.984H443.153C443.969 93.936 444.529 93.36 444.833 92.256C445.137 91.152 445.345 89.592 445.457 87.576L445.649 83.28H455.513V93.984H457.457ZM447.569 87.744C447.505 89.344 447.369 90.672 447.161 91.728C446.969 92.768 446.609 93.52 446.081 93.984H453.209V85.296H447.689L447.569 87.744Z" fill="white"/>
<rect x="248" width="7" height="110" fill="white"/>
</svg>
